<?xml version="1.0" encoding="UTF-8"?>
<svg version="1.1" xmlns="http://www.w3.org/2000/svg" width="200" height="28">
<path d="M0 0 C66 0 132 0 200 0 C200 9.24 200 18.48 200 28 C134 28 68 28 0 28 C0 18.76 0 9.52 0 0 Z " fill="#F4F4F5" transform="translate(0,0)"/>
<path d="M0 0 C30.69 0 61.38 0 93 0 C92 3 92 3 90 4 C89.67 11.92 89.34 19.84 89 28 C59.63 28 30.26 28 0 28 C0 18.76 0 9.52 0 0 Z " fill="#F1F1F1" transform="translate(0,0)"/>
<path d="M0 0 C1.00293091 0.00326294 1.00293091 0.00326294 2.02612305 0.0065918 C4.05442723 0.00973796 6.08125275 -0.01365238 8.109375 -0.0390625 C9.39263672 -0.03970703 10.67589844 -0.04035156 11.99804688 -0.04101562 C13.17407471 -0.04399658 14.35010254 -0.04697754 15.56176758 -0.05004883 C19.0975456 0.36159034 20.97954365 1.11976037 23.75976562 3.32226562 C24.7449244 6.93451446 25.17940446 9.23120466 23.82226562 12.75976562 C23.29632813 13.53320312 23.29632813 13.53320312 22.75976562 14.32226562 C23.25476562 14.81726563 23.25476562 14.81726563 23.75976562 15.32226562 C24.23101387 22.62661345 24.23101387 22.62661345 22.44726562 25.25976562 C18.6711905 27.63729441 15.24416198 27.43823354 10.90429688 27.41992188 C9.91184212 27.41779945 9.91184212 27.41779945 8.89933777 27.41563416 C6.79026735 27.41004558 4.68130385 27.39749527 2.57226562 27.38476562 C1.14062654 27.37974914 -0.29101422 27.37518649 -1.72265625 27.37109375 C-5.22855026 27.36007993 -8.73438188 27.34282317 -12.24023438 27.32226562 C-12.29808145 23.19732411 -12.33377844 19.07248618 -12.36523438 14.94726562 C-12.38199219 13.77164062 -12.39875 12.59601562 -12.41601562 11.38476562 C-12.42246094 10.26328125 -12.42890625 9.14179688 -12.43554688 7.98632812 C-12.44602051 6.94943848 -12.45649414 5.91254883 -12.46728516 4.84423828 C-11.87250081 -1.76234486 -5.07710896 0.02813511 0 0 Z " fill="#343436" transform="translate(12.240234375,0.677734375)"/>
<path d="M0 0 C10.89 0 21.78 0 33 0 C33 9.24 33 18.48 33 28 C23.76 28 14.52 28 5 28 C4.34 25.03 3.68 22.06 3 19 C1.05085854 16.01474075 1.05085854 16.01474075 -1 14 C-0.195625 13.154375 0.60875 12.30875 1.4375 11.4375 C4.21628662 8.1484842 4.74117776 5.31370396 5 1 C3.35 1 1.7 1 0 1 C0 0.67 0 0.34 0 0 Z " fill="#F8F8F8" transform="translate(167,0)"/>
<path d="M0 0 C1.65 0 3.3 0 5 0 C5 3.96 5 7.92 5 12 C16.77540666 11.98207733 16.77540666 11.98207733 27 7 C27.36760731 4.67182036 27.70241581 2.3381615 28 0 C29.65 0 31.3 0 33 0 C33.46733615 4.57989423 33.17261016 7.24854513 30.5 10.9375 C29.675 11.948125 28.85 12.95875 28 14 C28.639375 14.61875 29.27875 15.2375 29.9375 15.875 C33.8552676 19.91148783 33 20.42910448 33 27 C22.11 27 11.22 27 0 27 C0 18.09 0 9.18 0 0 Z " fill="#1F1F1F" transform="translate(139,1)"/>
<path d="M0 0 C24.75 0 49.5 0 75 0 C71.31885299 2.45409801 69.72960152 2.16723151 65.36328125 1.9765625 C63.41518555 1.89921875 63.41518555 1.89921875 61.42773438 1.8203125 C60.05597882 1.75543549 58.68423413 1.69032837 57.3125 1.625 C55.92907674 1.56674379 54.54561298 1.50944085 53.16210938 1.453125 C49.77422369 1.31147124 46.38705896 1.16003846 43 1 C43 2.65 43 4.3 43 6 C52.24 6 61.48 6 71 6 C71.495 8.475 71.495 8.475 72 11 C69.48268665 13.51731335 68.61234129 13.25001699 65.1328125 13.2734375 C64.16472656 13.2940625 63.19664063 13.3146875 62.19921875 13.3359375 C60.15763551 13.36187884 58.11594002 13.38016804 56.07421875 13.390625 C50.40245759 13.44332514 50.40245759 13.44332514 45.3515625 15.7109375 C43.78516837 18.36384779 43.41139443 20.18350576 43.25 23.25 C43.1675 24.8175 43.085 26.385 43 28 C38.71 28 34.42 28 30 28 C31.65 26.68 33.3 25.36 35 24 C35.59768575 22.01673535 35.59768575 22.01673535 35.3125 20 C35.26738281 19.34 35.22226562 18.68 35.17578125 18 C35.11777344 17.34 35.05976562 16.68 35 16 C35 12 35 12 35.625 9.5 C36.06847765 6.54348232 35.72294256 5.41211958 34 3 C30.60985184 1.86995061 28.00618687 1.87058373 24.43359375 1.8671875 C22.4990332 1.86525391 22.4990332 1.86525391 20.52539062 1.86328125 C19.85483643 1.86537598 19.18428223 1.8674707 18.4934082 1.86962891 C16.4414941 1.87498957 14.38979801 1.86967119 12.33789062 1.86328125 C11.04947266 1.86457031 9.76105469 1.86585938 8.43359375 1.8671875 C7.24822021 1.86831543 6.06284668 1.86944336 4.84155273 1.87060547 C2.05174041 1.80493659 2.05174041 1.80493659 0 3 C0 2.01 0 1.02 0 0 Z " fill="#F5F5F5" transform="translate(0,0)"/>
<path d="M0 0 C1.65 0 3.3 0 5 0 C4.96519531 0.77085938 4.93039063 1.54171875 4.89453125 2.3359375 C4.86746094 3.33882813 4.84039062 4.34171875 4.8125 5.375 C4.77769531 6.37273438 4.74289063 7.37046875 4.70703125 8.3984375 C4.85205078 9.68621094 4.85205078 9.68621094 5 11 C8.28139771 13.18759847 10.53049832 13.67291933 14.375 14.4375 C21.27832064 15.84692796 28.14020467 17.39330375 35 19 C35.5625 20.9375 35.5625 20.9375 36 23 C35 24 35 24 32.22436523 24.11352539 C31.01466064 24.10828857 29.80495605 24.10305176 28.55859375 24.09765625 C27.25341797 24.09443359 25.94824219 24.09121094 24.60351562 24.08789062 C23.2148431 24.07953401 21.82617123 24.07106905 20.4375 24.0625 C19.04492344 24.05748666 17.65234519 24.05292347 16.25976562 24.04882812 C12.8398013 24.03699434 9.41992156 24.0205088 6 24 C6 25.32 6 26.64 6 28 C2.7 28 -0.6 28 -4 28 C-4 20.08 -4 12.16 -4 4 C-3.01 3.67 -2.02 3.34 -1 3 C-0.67 2.01 -0.34 1.02 0 0 Z " fill="#F9F9F9" transform="translate(93,0)"/>
<path d="M0 0 C1.0236264 0.00636726 1.0236264 0.00636726 2.06793213 0.01286316 C4.23840504 0.02959903 6.40793479 0.06723916 8.578125 0.10546875 C10.05337197 0.12052229 11.52863355 0.13420953 13.00390625 0.14648438 C16.61228344 0.17948498 20.2201121 0.23123108 23.828125 0.29296875 C23.828125 1.61296875 23.828125 2.93296875 23.828125 4.29296875 C14.258125 4.62296875 4.688125 4.95296875 -5.171875 5.29296875 C-5.171875 6.28296875 -5.171875 7.27296875 -5.171875 8.29296875 C-4.38425781 8.47472656 -3.59664063 8.65648437 -2.78515625 8.84375 C-0.49296176 9.37271796 1.79866633 9.90414394 4.08984375 10.4375 C6.52581355 10.99494763 8.96587138 11.53491045 11.41015625 12.0546875 C12.53808594 12.29832031 13.66601562 12.54195312 14.828125 12.79296875 C15.859375 13.00953125 16.890625 13.22609375 17.953125 13.44921875 C21.00526486 14.34495545 23.26579577 15.41053554 25.828125 17.29296875 C26.453125 20.23046875 26.453125 20.23046875 25.828125 23.29296875 C23.0811566 26.12974496 21.45066544 27.20785848 17.5065918 27.74707031 C16.27593994 27.72612305 15.04528809 27.70517578 13.77734375 27.68359375 C13.11853714 27.67793396 12.45973053 27.67227417 11.78096008 27.66644287 C9.69175284 27.64418114 7.60430727 27.59401205 5.515625 27.54296875 C4.09312386 27.52289019 2.67059563 27.50464179 1.24804688 27.48828125 C-2.2258258 27.44435234 -5.69867825 27.37539971 -9.171875 27.29296875 C-9.171875 25.97296875 -9.171875 24.65296875 -9.171875 23.29296875 C0.398125 22.96296875 9.968125 22.63296875 19.828125 22.29296875 C19.828125 21.30296875 19.828125 20.31296875 19.828125 19.29296875 C18.99003296 19.13477661 18.99003296 19.13477661 18.13500977 18.97338867 C15.55229141 18.48211507 12.97149779 17.98134385 10.390625 17.48046875 C9.51212891 17.31482422 8.63363281 17.14917969 7.72851562 16.97851562 C-7.45599197 14.00885178 -7.45599197 14.00885178 -11.171875 10.29296875 C-11.546875 6.85546875 -11.546875 6.85546875 -11.171875 3.29296875 C-7.86443503 -0.28564849 -4.68154481 -0.05755998 0 0 Z " fill="#171717" transform="translate(108.171875,0.70703125)"/>
<path d="M0 0 C4.03833789 -0.0992502 8.07619872 -0.17164562 12.11547852 -0.21972656 C13.48800023 -0.2397799 14.86043717 -0.26703028 16.23266602 -0.30175781 C18.21072044 -0.35054552 20.18941119 -0.37088876 22.16796875 -0.390625 C23.35672607 -0.41157227 24.5454834 -0.43251953 25.77026367 -0.45410156 C29.63360866 0.0890855 31.26260419 1.27494335 34 4 C34.92485966 6.99286882 34.45860943 8.78973401 34 12 C32 14 32 14 30 15 C30.28875 15.70125 30.5775 16.4025 30.875 17.125 C32.02133588 20.05452503 33.02625654 23.00921653 34 26 C31.8125 26.5 31.8125 26.5 29 26 C26.6018833 23.16114834 24 19.81204169 24 16 C18.06 16.33 12.12 16.66 6 17 C5.67 20.3 5.34 23.6 5 27 C3.35 27 1.7 27 0 27 C-0.1363128 25.43997572 -0.23259126 23.87642824 -0.3125 22.3125 C-0.39951172 21.00732422 -0.39951172 21.00732422 -0.48828125 19.67578125 C0.25662957 15.59366997 1.59817712 14.36793554 5 12 C8.76999525 11.25999008 12.47874638 11.20957536 16.3125 11.1875 C17.33923828 11.16236328 18.36597656 11.13722656 19.42382812 11.11132812 C21.949604 11.05258915 24.47365228 11.01621288 27 11 C27.33 9.35 27.66 7.7 28 6 C14.14 5.505 14.14 5.505 0 5 C0 3.35 0 1.7 0 0 Z " fill="#0B0B0B" transform="translate(43,1)"/>
<path d="M0 0 C3.3956697 -0.08745946 6.79104773 -0.14054444 10.1875 -0.1875 C11.14720703 -0.21263672 12.10691406 -0.23777344 13.09570312 -0.26367188 C22.28652351 -0.35907832 22.28652351 -0.35907832 26 3 C26.98515877 6.61224884 27.41963883 8.90893904 26.0625 12.4375 C25.5365625 13.2109375 25.5365625 13.2109375 25 14 C25.495 14.495 25.495 14.495 26 15 C26.4713724 22.30627219 26.4713724 22.30627219 24.90795898 24.60717773 C22.03472 26.70466058 19.66271387 26.33750271 16.14453125 26.29296875 C15.48289474 26.28872391 14.82125824 26.28447906 14.13957214 26.28010559 C12.0301309 26.26333693 9.92165154 26.22569099 7.8125 26.1875 C6.38087319 26.17245068 4.94923138 26.1587627 3.51757812 26.14648438 C0.01140712 26.1134403 -3.49420254 26.06167167 -7 26 C-6.67 24.68 -6.34 23.36 -6 22 C2.91 22 11.82 22 21 22 C21 20.35 21 18.7 21 17 C18.48322887 15.74161443 16.58706712 15.79181027 13.7734375 15.68359375 C12.7421875 15.64169922 11.7109375 15.59980469 10.6484375 15.55664062 C9.56820313 15.51732422 8.48796875 15.47800781 7.375 15.4375 C6.28703125 15.39431641 5.1990625 15.35113281 4.078125 15.30664062 C1.3855483 15.2003547 -1.30712253 15.09831943 -4 15 C-4.33 14.01 -4.66 13.02 -5 12 C-4.28344238 11.98018066 -3.56688477 11.96036133 -2.82861328 11.93994141 C0.4063063 11.84490481 3.64056094 11.73513981 6.875 11.625 C8.00292969 11.5940625 9.13085938 11.563125 10.29296875 11.53125 C11.36933594 11.49257812 12.44570313 11.45390625 13.5546875 11.4140625 C15.04718018 11.36693115 15.04718018 11.36693115 16.56982422 11.31884766 C19.17854517 11.22752917 19.17854517 11.22752917 21 9 C21 7.35 21 5.7 21 4 C13.74 3.67 6.48 3.34 -1 3 C-0.67 2.01 -0.34 1.02 0 0 Z " fill="#171718" transform="translate(10,1)"/>
<path d="M0 0 C2.75026417 -0.05404449 5.49946203 -0.09369306 8.25 -0.125 C9.02730469 -0.14175781 9.80460938 -0.15851562 10.60546875 -0.17578125 C18.00475072 -0.23902298 18.00475072 -0.23902298 21 2 C23 5 23 5 23 11 C15.41 11 7.82 11 0 11 C0 7.37 0 3.74 0 0 Z " fill="#F9F9F9" transform="translate(144,17)"/>
<path d="M0 0 C0.74886475 0.00523682 1.49772949 0.01047363 2.26928711 0.01586914 C3.07817383 0.0190918 3.88706055 0.02231445 4.72045898 0.02563477 C5.5705957 0.03401367 6.42073242 0.04239258 7.29663086 0.05102539 C8.15063477 0.05553711 9.00463867 0.06004883 9.88452148 0.06469727 C12.00108749 0.07652166 14.11761771 0.0944577 16.23413086 0.11352539 C20.23413086 6.61352539 20.23413086 6.61352539 20.23413086 11.11352539 C12.64413086 11.11352539 5.05413086 11.11352539 -2.76586914 11.11352539 C-2.76586914 0.17781407 -2.76586914 0.17781407 0 0 Z " fill="#FAFAFA" transform="translate(50.765869140625,16.886474609375)"/>
<path d="M0 0 C3.93743833 -0.05797565 7.87476719 -0.09358789 11.8125 -0.125 C12.93205078 -0.14175781 14.05160156 -0.15851562 15.20507812 -0.17578125 C16.27822266 -0.18222656 17.35136719 -0.18867188 18.45703125 -0.1953125 C19.9416687 -0.21102295 19.9416687 -0.21102295 21.45629883 -0.22705078 C24 0 24 0 27 2 C26.625 4.4375 26.625 4.4375 26 7 C23.45724451 8.27137774 21.65191799 8.129425 18.80859375 8.1328125 C17.78185547 8.13410156 16.75511719 8.13539062 15.69726562 8.13671875 C14.62154297 8.13285156 13.54582031 8.12898438 12.4375 8.125 C11.35791016 8.12886719 10.27832031 8.13273437 9.16601562 8.13671875 C7.6278418 8.13478516 7.6278418 8.13478516 6.05859375 8.1328125 C5.11298584 8.13168457 4.16737793 8.13055664 3.19311523 8.12939453 C1 8 1 8 0 7 C-0.04092937 4.66702567 -0.04241723 2.33294775 0 0 Z " fill="#FAFAFA" transform="translate(5,16)"/>
<path d="M0 0 C0.82741699 0.01047363 1.65483398 0.02094727 2.50732422 0.03173828 C3.40322266 0.03818359 4.29912109 0.04462891 5.22216797 0.05126953 C6.62789062 0.07640625 6.62789062 0.07640625 8.06201172 0.10205078 C9.00689453 0.11107422 9.95177734 0.12009766 10.92529297 0.12939453 C13.26278464 0.15300556 15.59977295 0.18593562 17.93701172 0.22705078 C17.45970334 1.68599338 16.9801013 3.14418575 16.49951172 4.60205078 C16.23267578 5.41416016 15.96583984 6.22626953 15.69091797 7.06298828 C14.93701172 9.22705078 14.93701172 9.22705078 13.93701172 11.22705078 C12.61701172 11.22705078 11.29701172 11.22705078 9.93701172 11.22705078 C7.68701172 8.72705078 7.68701172 8.72705078 5.93701172 6.22705078 C5.60701172 7.87705078 5.27701172 9.52705078 4.93701172 11.22705078 C1.56201172 11.35205078 1.56201172 11.35205078 -2.06298828 11.22705078 C-4.06298828 9.22705078 -4.06298828 9.22705078 -4.31298828 5.72705078 C-4.05103819 2.05974956 -3.88736576 0.42784026 0 0 Z " fill="#F4F4F4" transform="translate(182.06298828125,-0.22705078125)"/>
<path d="M0 0 C8.58 0 17.16 0 26 0 C26.33 1.65 26.66 3.3 27 5 C25 7 25 7 22.47802734 7.22705078 C21.4411377 7.21657715 20.40424805 7.20610352 19.3359375 7.1953125 C18.21445312 7.18886719 17.09296875 7.18242187 15.9375 7.17578125 C14.761875 7.15902344 13.58625 7.14226563 12.375 7.125 C10.59996094 7.11146484 10.59996094 7.11146484 8.7890625 7.09765625 C5.85917477 7.07402812 2.9296866 7.04108514 0 7 C0 4.69 0 2.38 0 0 Z " fill="#F8F8F9" transform="translate(5,5)"/>
<path d="M0 0 C1.0236264 0.00636726 1.0236264 0.00636726 2.06793213 0.01286316 C4.23840504 0.02959903 6.40793479 0.06723916 8.578125 0.10546875 C10.05337197 0.12052229 11.52863355 0.13420953 13.00390625 0.14648438 C16.61228344 0.17948498 20.2201121 0.23123108 23.828125 0.29296875 C23.828125 1.61296875 23.828125 2.93296875 23.828125 4.29296875 C14.258125 4.62296875 4.688125 4.95296875 -5.171875 5.29296875 C-4.841875 6.61296875 -4.511875 7.93296875 -4.171875 9.29296875 C-4.171875 10.28296875 -4.171875 11.27296875 -4.171875 12.29296875 C-6.546875 12.41796875 -6.546875 12.41796875 -9.171875 12.29296875 C-11.171875 10.29296875 -11.171875 10.29296875 -11.546875 6.85546875 C-11.171875 3.29296875 -11.171875 3.29296875 -9.59667969 1.58862305 C-6.27946336 -0.18387665 -3.75034102 -0.04611075 0 0 Z " fill="#090909" transform="translate(108.171875,0.70703125)"/>
<path d="M0 0 C4.03825066 -0.12406007 8.07575638 -0.21455045 12.11547852 -0.2746582 C13.48807102 -0.29972617 14.86053102 -0.33379082 16.23266602 -0.37719727 C18.21050696 -0.43817531 20.18934184 -0.46361009 22.16796875 -0.48828125 C23.35672607 -0.51446533 24.5454834 -0.54064941 25.77026367 -0.56762695 C29.89322867 0.15698516 31.35641983 1.85080515 34 5 C32.68 5 31.36 5 30 5 C30 6.98 30 8.96 30 11 C29.34 10.67 28.68 10.34 28 10 C28 8.68 28 7.36 28 6 C14.14 5.505 14.14 5.505 0 5 C0 3.35 0 1.7 0 0 Z " fill="#191919" transform="translate(43,1)"/>
<path d="M0 0 C1.65 0 3.3 0 5 0 C5 8.91 5 17.82 5 27 C3.35 27 1.7 27 0 27 C0 18.09 0 9.18 0 0 Z " fill="#191919" transform="translate(84,1)"/>
<path d="M0 0 C-0.33 1.32 -0.66 2.64 -1 4 C-10.9 4 -20.8 4 -31 4 C-31 2.68 -31 1.36 -31 0 C-26.90682137 -0.16754147 -22.81343505 -0.32810824 -18.71972656 -0.48217773 C-17.32674778 -0.53559149 -15.93384107 -0.59092043 -14.54101562 -0.64819336 C-12.54056398 -0.73012069 -10.5398125 -0.80462098 -8.5390625 -0.87890625 C-6.73236084 -0.94960327 -6.73236084 -0.94960327 -4.88916016 -1.02172852 C-2 -1 -2 -1 0 0 Z " fill="#1E1E1F" transform="translate(130,24)"/>
<path d="M0 0 C9.24 0 18.48 0 28 0 C28 1.32 28 2.64 28 4 C18.76 4 9.52 4 0 4 C0 2.68 0 1.36 0 0 Z " fill="#0A0A0C" transform="translate(3,23)"/>
<path d="M0 0 C0.33 0 0.66 0 1 0 C1 1.65 1 3.3 1 5 C-7.91 5 -16.82 5 -26 5 C-26.33 4.01 -26.66 3.02 -27 2 C-26.21761963 1.97494385 -25.43523926 1.9498877 -24.62915039 1.92407227 C-21.10675051 1.80850212 -17.5846444 1.68560051 -14.0625 1.5625 C-12.83080078 1.52318359 -11.59910156 1.48386719 -10.33007812 1.44335938 C-8.5753418 1.38051758 -8.5753418 1.38051758 -6.78515625 1.31640625 C-5.70113525 1.27974854 -4.61711426 1.24309082 -3.50024414 1.20532227 C-1.060737 1.27635735 -1.060737 1.27635735 0 0 Z " fill="#0A0A0B" transform="translate(32,11)"/>
<path d="M0 0 C3.45831586 -0.02894547 6.91660072 -0.04678 10.375 -0.0625 C11.35984375 -0.07087891 12.3446875 -0.07925781 13.359375 -0.08789062 C14.77089844 -0.09272461 14.77089844 -0.09272461 16.2109375 -0.09765625 C17.51490479 -0.10551147 17.51490479 -0.10551147 18.84521484 -0.11352539 C21 0 21 0 23 1 C23 1.99 23 2.98 23 4 C15.08 3.67 7.16 3.34 -1 3 C-0.67 2.01 -0.34 1.02 0 0 Z " fill="#0B0B0C" transform="translate(10,1)"/>
<path d="M0 0 C6.27 0 12.54 0 19 0 C19.33 1.32 19.66 2.64 20 4 C20.66 3.34 21.32 2.68 22 2 C26 8.75 26 8.75 26 11 C23.8125 11.5 23.8125 11.5 21 11 C18.6018833 8.16114834 16 4.81204169 16 1 C10.72 1 5.44 1 0 1 C0 0.67 0 0.34 0 0 Z " fill="#454545" transform="translate(51,16)"/>
<path d="M0 0 C2.31 0.33 4.62 0.66 7 1 C7.6875 2.8125 7.6875 2.8125 8 5 C6.85229492 6.6184082 6.85229492 6.6184082 5 8 C2.5480957 8.34057617 2.5480957 8.34057617 -0.32421875 8.29296875 C-1.35224609 8.28330078 -2.38027344 8.27363281 -3.43945312 8.26367188 C-5.04723633 8.2259668 -5.04723633 8.2259668 -6.6875 8.1875 C-7.77095703 8.17396484 -8.85441406 8.16042969 -9.97070312 8.14648438 C-12.64763405 8.11110643 -15.32356838 8.06174189 -18 8 C-18 7.67 -18 7.34 -18 7 C-11.73 7 -5.46 7 1 7 C1.372678 2.372678 1.372678 2.372678 0 0 Z " fill="#D4D4D4" transform="translate(24,16)"/>
<path d="M0 0 C2.05078125 0.03255208 4.1015625 0.06510417 6.15234375 0.09765625 C6.15234375 0.75765625 6.15234375 1.41765625 6.15234375 2.09765625 C3.84234375 2.09765625 1.53234375 2.09765625 -0.84765625 2.09765625 C-0.84765625 2.75765625 -0.84765625 3.41765625 -0.84765625 4.09765625 C1.46234375 4.09765625 3.77234375 4.09765625 6.15234375 4.09765625 C6.15234375 6.07765625 6.15234375 8.05765625 6.15234375 10.09765625 C2.77734375 10.22265625 2.77734375 10.22265625 -0.84765625 10.09765625 C-2.84765625 8.09765625 -2.84765625 8.09765625 -3.03515625 4.53515625 C-2.79584438 0.1477719 -2.79584438 0.1477719 0 0 Z " fill="#444444" transform="translate(180.84765625,0.90234375)"/>
<path d="M0 0 C2.33944736 0.28730055 4.6739143 0.61936779 7 1 C7.5625 2.9375 7.5625 2.9375 8 5 C7 6 7 6 4.22436523 6.11352539 C3.01466064 6.10828857 1.80495605 6.10305176 0.55859375 6.09765625 C-0.74658203 6.09443359 -2.05175781 6.09121094 -3.39648438 6.08789062 C-4.7851569 6.07953401 -6.17382877 6.07106905 -7.5625 6.0625 C-8.95507656 6.05748666 -10.34765481 6.05292347 -11.74023438 6.04882812 C-15.1601987 6.03699434 -18.58007844 6.0205088 -22 6 C-22 5.67 -22 5.34 -22 5 C-14.74 4.67 -7.48 4.34 0 4 C-0.33 3.01 -0.66 2.02 -1 1 C-0.67 0.67 -0.34 0.34 0 0 Z " fill="#E6E6E6" transform="translate(121,18)"/>
<path d="M0 0 C3.19588316 0.03448795 6.13691725 0.34672931 9.25 1.125 C9.25 1.455 9.25 1.785 9.25 2.125 C16.18 2.62 16.18 2.62 23.25 3.125 C23.25 3.455 23.25 3.785 23.25 4.125 C22.47809326 4.11976318 21.70618652 4.11452637 20.91088867 4.10913086 C17.41976737 4.08836758 13.92865905 4.07534189 10.4375 4.0625 C9.22255859 4.05412109 8.00761719 4.04574219 6.75585938 4.03710938 C5.59248047 4.03388672 4.42910156 4.03066406 3.23046875 4.02734375 C2.15692139 4.02210693 1.08337402 4.01687012 -0.02270508 4.01147461 C-2.84499365 4.00305412 -2.84499365 4.00305412 -5.75 5.125 C-4.62757313 0.15425244 -4.62757313 0.15425244 0 0 Z " fill="#424244" transform="translate(5.75,0.875)"/>
<path d="M0 0 C1.65 0 3.3 0 5 0 C5.33292585 4.24480464 5.43885872 6.35542625 3 9.9375 C2.34 10.618125 1.68 11.29875 1 12 C0.01 11.67 -0.98 11.34 -2 11 C-1.34 7.37 -0.68 3.74 0 0 Z " fill="#101010" transform="translate(167,1)"/>
<path d="M0 0 C0.556875 0.268125 1.11375 0.53625 1.6875 0.8125 C-0.2925 1.8025 -2.2725 2.7925 -4.3125 3.8125 C-3.9825 4.8025 -3.6525 5.7925 -3.3125 6.8125 C-2.9825 6.8125 -2.6525 6.8125 -2.3125 6.8125 C-2.3125 9.4525 -2.3125 12.0925 -2.3125 14.8125 C-3.9625 14.8125 -5.6125 14.8125 -7.3125 14.8125 C-8.0900378 5.91401188 -8.0900378 5.91401188 -5.0625 1.625 C-2.3125 -0.1875 -2.3125 -0.1875 0 0 Z " fill="#202020" transform="translate(50.3125,13.1875)"/>
<path d="M0 0 C1.02787125 0.00212242 1.02787125 0.00212242 2.07650757 0.00428772 C4.26719511 0.0098895 6.4577808 0.02244219 8.6484375 0.03515625 C10.13281102 0.04017103 11.61718615 0.04473397 13.1015625 0.04882812 C16.74222065 0.05985948 20.38281914 0.07712526 24.0234375 0.09765625 C23.6934375 1.41765625 23.3634375 2.73765625 23.0234375 4.09765625 C22.0334375 3.43765625 21.0434375 2.77765625 20.0234375 2.09765625 C17.45796619 1.78928372 17.45796619 1.78928372 14.5859375 1.83203125 C12.99652344 1.82816406 12.99652344 1.82816406 11.375 1.82421875 C10.26898438 1.83195313 9.16296875 1.8396875 8.0234375 1.84765625 C6.36441406 1.83605469 6.36441406 1.83605469 4.671875 1.82421875 C3.61226562 1.82679688 2.55265625 1.829375 1.4609375 1.83203125 C0.49027344 1.83428711 -0.48039062 1.83654297 -1.48046875 1.83886719 C-4.22628251 1.9276257 -4.22628251 1.9276257 -6.9765625 4.09765625 C-9.1640625 4.72265625 -9.1640625 4.72265625 -10.9765625 5.09765625 C-8.43355286 -0.53329367 -5.96584666 -0.02425141 0 0 Z " fill="#1C1C1C" transform="translate(107.9765625,0.90234375)"/>
<path d="M0 0 C5.875 0.875 5.875 0.875 7 2 C7.3125 4.875 7.3125 4.875 7 8 C5 9.875 5 9.875 3 11 C2.34 10.34 1.68 9.68 1 9 C1.33 8.34 1.66 7.68 2 7 C1.39239518 4.6505947 0.72870472 2.31470912 0 0 Z " fill="#141414" transform="translate(127,16)"/>
<path d="M0 0 C1.485 1.485 1.485 1.485 3 3 C1.68 3 0.36 3 -1 3 C-1 4.98 -1 6.96 -1 9 C-1.66 8.67 -2.32 8.34 -3 8 C-3 6.68 -3 5.36 -3 4 C-16.86 3.505 -16.86 3.505 -31 3 C-31 2.67 -31 2.34 -31 2 C-30.16750732 1.97494385 -29.33501465 1.9498877 -28.47729492 1.92407227 C-25.38537167 1.82887306 -22.29361148 1.72964328 -19.2019043 1.62768555 C-17.20696681 1.56312994 -15.21188071 1.5032217 -13.21679688 1.44335938 C-11.33637695 1.38051758 -11.33637695 1.38051758 -9.41796875 1.31640625 C-8.26063232 1.27974854 -7.1032959 1.24309082 -5.91088867 1.20532227 C-2.9356554 1.11671491 -2.9356554 1.11671491 0 0 Z " fill="#646464" transform="translate(74,3)"/>
<path d="M0 0 C0.99 0.33 1.98 0.66 3 1 C4.1875 3.5625 4.1875 3.5625 5 6 C5.66 6 6.32 6 7 6 C7.66 4.02 8.32 2.04 9 0 C9.99 0.33 10.98 0.66 12 1 C10.68 3.97 9.36 6.94 8 10 C6.68 10 5.36 10 4 10 C3.32845067 8.71086513 2.66291141 7.41859796 2 6.125 C1.62875 5.40570312 1.2575 4.68640625 0.875 3.9453125 C0 2 0 2 0 0 Z " fill="#474747" transform="translate(188,1)"/>
<path d="M0 0 C0.68707555 2.49064888 1 4.37886292 1 7 C-1.375 7.125 -1.375 7.125 -4 7 C-6 5 -6 5 -6.125 2.375 C-6.08375 1.59125 -6.0425 0.8075 -6 0 C-3.50907189 -1.24546405 -2.58919267 -0.7767578 0 0 Z " fill="#161616" transform="translate(103,6)"/>
<path d="M0 0 C11.55 0 23.1 0 35 0 C35 0.99 35 1.98 35 3 C34.21616943 2.75660889 34.21616943 2.75660889 33.41650391 2.50830078 C30.34915132 1.86309689 27.47098541 1.870181 24.3359375 1.8671875 C22.40621094 1.86525391 22.40621094 1.86525391 20.4375 1.86328125 C19.77105469 1.86537598 19.10460937 1.8674707 18.41796875 1.86962891 C16.3749251 1.8750002 14.33209951 1.86966267 12.2890625 1.86328125 C11.00515625 1.86457031 9.72125 1.86585938 8.3984375 1.8671875 C6.62992432 1.86887939 6.62992432 1.86887939 4.82568359 1.87060547 C2.04938158 1.80621319 2.04938158 1.80621319 0 3 C0 2.01 0 1.02 0 0 Z " fill="#E4E4E5" transform="translate(0,0)"/>
<path d="M0 0 C5.94 0.99 5.94 0.99 12 2 C10.68 3.32 9.36 4.64 8 6 C5.0625 5.8125 5.0625 5.8125 2 5 C1.05125 4.814375 0.1025 4.62875 -0.875 4.4375 C-1.57625 4.293125 -2.2775 4.14875 -3 4 C-2.505 3.525625 -2.01 3.05125 -1.5 2.5625 C0.11542197 1.24076302 0.11542197 1.24076302 0 0 Z " fill="#1E1E1E" transform="translate(104,10)"/>
<path d="M0 0 C10.89 0 21.78 0 33 0 C33 0.33 33 0.66 33 1 C31.6682373 1.029729 31.6682373 1.029729 30.30957031 1.06005859 C27.00688666 1.13828232 23.70464936 1.22497885 20.40234375 1.31738281 C18.97469602 1.35560024 17.54695437 1.39046572 16.11914062 1.421875 C14.06346132 1.46768401 12.00842446 1.5256498 9.953125 1.5859375 C8.71723633 1.6173584 7.48134766 1.6487793 6.20800781 1.68115234 C3.23321983 1.97682001 1.50650816 2.44027331 -1 4 C-0.67 2.68 -0.34 1.36 0 0 Z " fill="#E6E6E6" transform="translate(98,0)"/>
<path d="M0 0 C1.32 0 2.64 0 4 0 C4.3125 3.3125 4.3125 3.3125 4 7 C1.5 8.9375 1.5 8.9375 -1 10 C-0.67 6.7 -0.34 3.4 0 0 Z " fill="#141414" transform="translate(73,6)"/>
<path d="M0 0 C3.3 0 6.6 0 10 0 C9.01 0.495 9.01 0.495 8 1 C8.33 2.32 8.66 3.64 9 5 C5.93109813 6.53445094 3.29905734 5.54984289 0 5 C0 4.34 0 3.68 0 3 C2.31 3 4.62 3 7 3 C7 2.34 7 1.68 7 1 C4.69 1 2.38 1 0 1 C0 0.67 0 0.34 0 0 Z " fill="#D8D8D8" transform="translate(180,0)"/>
<path d="M0 0 C0.99 1.32 1.98 2.64 3 4 C2.01 4.495 2.01 4.495 1 5 C1 4.34 1 3.68 1 3 C0.01 3.495 0.01 3.495 -1 4 C-1.33 4.99 -1.66 5.98 -2 7 C-1.01 7.33 -0.02 7.66 1 8 C0.01 8.495 0.01 8.495 -1 9 C-1.66 8.67 -2.32 8.34 -3 8 C-3 6.68 -3 5.36 -3 4 C-4.32 3.34 -5.64 2.68 -7 2 C-4.69 1.34 -2.38 0.68 0 0 Z " fill="#242425" transform="translate(164,10)"/>
<path d="M0 0 C0 2.64 0 5.28 0 8 C-0.33 7.34 -0.66 6.68 -1 6 C-1.99 6 -2.98 6 -4 6 C-4.33 4.68 -4.66 3.36 -5 2 C-2 0 -2 0 0 0 Z " fill="#0F0F11" transform="translate(5,4)"/>
<path d="M0 0 C0.99 0.66 1.98 1.32 3 2 C3.6875 5.625 3.6875 5.625 4 9 C1.96166576 7.7260411 -0.03852126 6.38938077 -2 5 C-2 4.34 -2 3.68 -2 3 C-1.34 3 -0.68 3 0 3 C0 2.01 0 1.02 0 0 Z " fill="#252525" transform="translate(33,2)"/>
<path d="M0 0 C0.66 0 1.32 0 2 0 C2.66 1.98 3.32 3.96 4 6 C2.35 6 0.7 6 -1 6 C-1.33 5.01 -1.66 4.02 -2 3 C-1.34 3 -0.68 3 0 3 C0 2.01 0 1.02 0 0 Z " fill="#1E1E1E" transform="translate(73,21)"/>
<path d="M0 0 C6.75 -0.125 6.75 -0.125 9 1 C8.67 1.99 8.34 2.98 8 4 C5.69 3.67 3.38 3.34 1 3 C0.67 2.01 0.34 1.02 0 0 Z " fill="#0A0A0C" transform="translate(152,13)"/>
<path d="M0 0 C0.99 0.33 1.98 0.66 3 1 C3.70491267 3.32206525 4.37212429 5.65593068 5 8 C5.66 8.33 6.32 8.66 7 9 C5.1875 8.875 5.1875 8.875 3 8 C0 2.96428571 0 2.96428571 0 0 Z " fill="#272727" transform="translate(188,1)"/>
<path d="M0 0 C0.66 0 1.32 0 2 0 C3.4606285 2.64738916 4 3.89448334 4 7 C1 6 1 6 -1 4 C-0.625 1.875 -0.625 1.875 0 0 Z " fill="#09090A" transform="translate(163,13)"/>
<path d="M0 0 C2.64 0 5.28 0 8 0 C8 0.66 8 1.32 8 2 C5.69 2 3.38 2 1 2 C0.67 2.66 0.34 3.32 0 4 C0 2.68 0 1.36 0 0 Z " fill="#202020" transform="translate(179,1)"/>
<path d="M0 0 C0.66 0.33 1.32 0.66 2 1 C2 2.32 2 3.64 2 5 C0.68 5 -0.64 5 -2 5 C-2 3.68 -2 2.36 -2 1 C-1.34 0.67 -0.68 0.34 0 0 Z " fill="#090909" transform="translate(99,5)"/>
</svg>
