<svg width="20" height="20" viewBox="0 0 20 20" fill="none" xmlns="http://www.w3.org/2000/svg">
<path fill-rule="evenodd" clip-rule="evenodd" d="M18.0404 13.6386L15.2125 13.3157C14.5333 13.2378 13.8653 13.4716 13.3866 13.9503L11.338 15.9989C8.18723 14.3956 5.60425 11.8238 4.00102 8.66188L6.06072 6.60218C6.53947 6.12344 6.77327 5.45542 6.69533 4.77628L6.37246 1.97063C6.23886 0.846147 5.29251 0 4.15689 0H2.23079C0.972706 0 -0.0738448 1.04655 0.00408987 2.30464C0.594166 11.8127 8.19836 19.4057 17.6953 19.9958C18.9533 20.0737 19.9999 19.0272 19.9999 17.7691V15.843C20.011 14.7185 19.1649 13.7722 18.0404 13.6386Z" fill="black"/>
</svg>
