<svg width="20" height="28" viewBox="0 0 20 28" fill="none" xmlns="http://www.w3.org/2000/svg">
<path fill-rule="evenodd" clip-rule="evenodd" d="M0 10C0 4.47143 4.47143 0 10 0C15.5286 0 20 4.47143 20 10C20 15.9571 13.6857 24.1714 11.1 27.3C10.5286 27.9857 9.48571 27.9857 8.91429 27.3C6.31429 24.1714 0 15.9571 0 10ZM6.42969 10.0001C6.42969 11.9716 8.02969 13.5716 10.0011 13.5716C11.9725 13.5716 13.5725 11.9716 13.5725 10.0001C13.5725 8.02871 11.9725 6.42871 10.0011 6.42871C8.02969 6.42871 6.42969 8.02871 6.42969 10.0001Z" fill="black"/>
</svg>
